<?xml version="1.0" standalone="no"?><!DOCTYPE svg PUBLIC "-//W3C//DTD SVG 1.1//EN" "http://www.w3.org/Graphics/SVG/1.1/DTD/svg11.dtd"><svg t="1565545131261" class="icon" viewBox="0 0 1024 1024" version="1.1" xmlns="http://www.w3.org/2000/svg" p-id="12620" width="32" height="32" xmlns:xlink="http://www.w3.org/1999/xlink"><defs><style type="text/css"></style></defs><path d="M817.77664 0H248.89344a85.42208 85.42208 0 0 0-85.32992 85.32992v227.56352h-14.2336a28.44672 28.44672 0 0 0 0 56.89344h14.22336v284.43648H149.32992a28.44672 28.44672 0 0 0 0 56.89344h14.22336v227.55328A85.42208 85.42208 0 0 0 248.89344 1024h568.8832a85.42208 85.42208 0 0 0 85.32992-85.32992V85.32992A85.42208 85.42208 0 0 0 817.77664 0z m28.44672 938.67008a28.4672 28.4672 0 0 1-28.44672 28.44672H248.89344a28.4672 28.4672 0 0 1-28.44672-28.44672V711.10656h14.22336a28.44672 28.44672 0 0 0 0-56.89344H220.44672V369.77664h14.22336a28.44672 28.44672 0 0 0 0-56.89344H220.44672V85.32992A28.4672 28.4672 0 0 1 248.89344 56.8832h568.8832a28.4672 28.4672 0 0 1 28.44672 28.44672z" p-id="12621" fill="#3a3a3a"></path><path d="M732.44672 256H334.22336a28.44672 28.44672 0 1 0 0 56.89344h398.22336a28.44672 28.44672 0 1 0 0-56.89344zM732.44672 483.55328H334.22336a28.44672 28.44672 0 1 0 0 56.89344h398.22336a28.44672 28.44672 0 1 0 0-56.89344zM732.44672 711.10656H334.22336a28.44672 28.44672 0 1 0 0 56.89344h398.22336a28.44672 28.44672 0 1 0 0-56.89344z" p-id="12622" fill="#3a3a3a"></path></svg>