<?xml version="1.0" standalone="no"?><!DOCTYPE svg PUBLIC "-//W3C//DTD SVG 1.1//EN" "http://www.w3.org/Graphics/SVG/1.1/DTD/svg11.dtd"><svg t="1565544968970" class="icon" viewBox="0 0 1024 1024" version="1.1" xmlns="http://www.w3.org/2000/svg" p-id="11634" width="32" height="32" xmlns:xlink="http://www.w3.org/1999/xlink"><defs><style type="text/css"></style></defs><path d="M270.933333 341.333333h168.533334c12.8 0 21.333333-8.533333 21.333333-21.333333s-8.533333-21.333333-21.333333-21.333333h-168.533334c-12.8 0-21.333333 8.533333-21.333333 21.333333s10.666667 21.333333 21.333333 21.333333zM765.866667 437.333333H270.933333c-12.8 0-21.333333 8.533333-21.333333 21.333334s8.533333 21.333333 21.333333 21.333333h494.933334c12.8 0 21.333333-8.533333 21.333333-21.333333s-8.533333-21.333333-21.333333-21.333334zM765.866667 571.733333H270.933333c-12.8 0-21.333333 8.533333-21.333333 21.333334s8.533333 21.333333 21.333333 21.333333h494.933334c12.8 0 21.333333-8.533333 21.333333-21.333333s-8.533333-21.333333-21.333333-21.333334zM533.333333 349.866667c17.066667 0 29.866667-12.8 29.866667-29.866667s-12.8-29.866667-29.866667-29.866667c-17.066667 0-29.866667 12.8-29.866666 29.866667s14.933333 29.866667 29.866666 29.866667z" p-id="11635" fill="#3a3a3a"></path><path d="M915.2 829.866667V198.4c0-46.933333-38.4-85.333333-85.333333-85.333333H206.933333c-46.933333 0-85.333333 38.4-85.333333 85.333333V832c0 4.266667 2.133333 6.4 6.4 10.666667L202.666667 917.333333c4.266667 4.266667 10.666667 6.4 14.933333 6.4s10.666667-2.133333 14.933333-6.4l59.733334-59.733333 61.866666 61.866667c4.266667 4.266667 10.666667 6.4 14.933334 6.4s10.666667-2.133333 14.933333-6.4l59.733333-59.733334 59.733334 59.733334c4.266667 4.266667 10.666667 6.4 14.933333 6.4s10.666667-2.133333 14.933333-6.4l59.733334-59.733334 59.733333 59.733334c4.266667 4.266667 10.666667 6.4 14.933333 6.4s10.666667-2.133333 14.933334-6.4l59.733333-59.733334 59.733333 59.733334c4.266667 4.266667 10.666667 6.4 14.933334 6.4s10.666667-2.133333 14.933333-6.4l74.666667-74.666667c6.4-4.266667 8.533333-10.666667 8.533333-14.933333zM819.2 874.666667l-59.733333-59.733334c-8.533333-8.533333-21.333333-8.533333-29.866667 0L669.866667 874.666667l-59.733334-59.733334c-8.533333-8.533333-21.333333-8.533333-29.866666 0L520.533333 874.666667l-57.6-57.6c0-2.133333-2.133333-2.133333-2.133333-4.266667-4.266667-4.266667-10.666667-6.4-14.933333-6.4-6.4 0-10.666667 2.133333-14.933334 6.4-2.133333 2.133333-2.133333 2.133333-2.133333 4.266667l-55.466667 55.466666-64-61.866666c-4.266667-4.266667-10.666667-6.4-17.066666-6.4-6.4 0-12.8 2.133333-17.066667 6.4l-59.733333 59.733333-53.333334-53.333333v-618.666667c0-23.466667 19.2-42.666667 42.666667-42.666667h622.933333c23.466667 0 42.666667 19.2 42.666667 42.666667v622.933333L819.2 874.666667z" p-id="11636" fill="#3a3a3a"></path></svg>