<?xml version="1.0" standalone="no"?><!DOCTYPE svg PUBLIC "-//W3C//DTD SVG 1.1//EN" "http://www.w3.org/Graphics/SVG/1.1/DTD/svg11.dtd"><svg t="1565544631462" class="icon" viewBox="0 0 1024 1024" version="1.1" xmlns="http://www.w3.org/2000/svg" p-id="8635" width="32" height="32" xmlns:xlink="http://www.w3.org/1999/xlink"><defs><style type="text/css"></style></defs><path d="M512.582 66.249c-246.456 0-446.248 199.794-446.248 446.252 0 246.456 199.792 446.25 446.248 446.25 246.458 0 446.25-199.794 446.25-446.25 0-246.458-199.792-446.252-446.25-446.252z m0 853.698c-225.025 0-407.446-182.421-407.446-407.446 0-225.027 182.421-407.446 407.446-407.446 225.027 0 407.448 182.419 407.448 407.446 0 225.025-182.422 407.446-407.448 407.446z m263.963-465.652c-56.439 0-83.637 46.241-107.624 87.044-24.942 42.415-42.433 68.173-74.925 68.173-32.454 0-49.933-25.751-74.848-68.164-23.987-40.803-51.165-87.054-107.579-87.054-56.431 0-83.608 46.251-107.595 87.044-24.934 42.423-42.415 68.173-74.887 68.173-32.446 0-49.926-25.751-74.842-68.164-3.132-5.326-6.345-10.731-9.66-16.104 1.065 31.096 5.828 61.218 14.136 89.896 17.611 19.179 39.546 33.176 70.366 33.176 56.431 0 83.608-46.251 107.595-87.044 24.934-42.425 42.413-68.175 74.887-68.175 32.456 0 49.933 25.751 74.854 68.168 23.985 40.801 51.163 87.052 107.573 87.052 56.451 0 83.639-46.251 107.632-87.052 24.945-42.417 42.435-68.168 74.918-68.168 32.485 0 49.972 25.751 74.918 68.168 6.378 10.842 13.114 21.954 20.467 32.547 4.336-19.231 6.983-39.047 8.182-59.291-23.073-38.969-50.238-80.225-103.568-80.225z" p-id="8636" fill="#3a3a3a"></path></svg>