<?xml version="1.0" standalone="no"?><!DOCTYPE svg PUBLIC "-//W3C//DTD SVG 1.1//EN" "http://www.w3.org/Graphics/SVG/1.1/DTD/svg11.dtd"><svg t="1565558648629" class="icon" viewBox="0 0 1024 1024" version="1.1" xmlns="http://www.w3.org/2000/svg" p-id="4310" width="22" height="22" xmlns:xlink="http://www.w3.org/1999/xlink"><defs><style type="text/css"></style></defs><path d="M207.589 475.023c20.622 0 41.246 0 61.866 0 49.335 0 98.671 0 148.008 0 59.252 0 118.503 0 177.754 0 50.369 0 100.738 0 151.107 0 22.69 0 45.381 0 68.07 0 0.072 0 0.142 0 0.214 0 11.046 0 20.262-9.231 20.262-20.292s-9.217-20.292-20.263-20.292c-20.622 0-41.245 0-61.866 0-49.335 0-98.67 0-148.008 0-59.251 0-118.501 0-177.753 0-50.369 0-100.738 0-151.107 0-22.69 0-45.38 0-68.069 0-0.073 0-0.142 0-0.214 0-11.046 0-20.263 9.231-20.263 20.292s9.218 20.292 20.263 20.292l0 0z" p-id="4311" fill="#3a3a3a"></path><path d="M534.547 893.905c0-27.269 0-54.538 0-81.807 0-57.016 0-114.033 0-171.05 0-49.581 0-99.161 0-148.739 0-10.709 0-21.419 0-32.128 0-11.082-9.23-20.331-20.292-20.331-11.062 0-20.291 9.249-20.291 20.331 0 27.268 0 54.537 0 81.806 0 57.017 0 114.034 0 171.05 0 49.581 0 99.161 0 148.739 0 10.709 0 21.419 0 32.128 0 11.083 9.231 20.331 20.291 20.331 11.063 0 20.292-9.248 20.292-20.331l0 0z" p-id="4312" fill="#3a3a3a"></path><path d="M560.169 466.386c17.491-22.562 34.982-45.121 52.471-67.683 35.282-45.509 70.565-91.018 105.847-136.527 27.29-35.2 54.578-70.397 81.866-105.596 2.912-3.755 5.82-7.509 8.732-11.262 3.469-4.474 5.943-8.429 5.943-14.349 0-5.361-2.155-10.559-5.943-14.349-7.083-7.082-21.908-8.757-28.698 0-17.491 22.561-34.982 45.121-52.471 67.683-35.282 45.509-70.565 91.018-105.847 136.527-27.29 35.2-54.578 70.397-81.867 105.596-2.911 3.755-5.819 7.509-8.731 11.262-3.469 4.474-5.943 8.43-5.943 14.349 0 5.36 2.155 10.559 5.943 14.349 7.081 7.081 21.907 8.758 28.698 0l0 0z" p-id="4313" fill="#3a3a3a"></path><path d="M214.913 145.319c17.491 22.561 34.983 45.121 52.472 67.682 35.282 45.51 70.565 91.018 105.847 136.528 27.289 35.199 54.578 70.397 81.867 105.596 2.91 3.755 5.821 7.509 8.73 11.263 6.791 8.758 21.616 7.082 28.698 0 3.789-3.79 5.943-8.989 5.943-14.349 0-5.918-2.475-9.875-5.943-14.349-17.492-22.561-34.983-45.121-52.472-67.682-35.282-45.51-70.564-91.018-105.847-136.528-27.289-35.199-54.578-70.397-81.867-105.597-2.91-3.754-5.821-7.509-8.73-11.262-6.791-8.757-21.616-7.082-28.698 0-3.789 3.79-5.943 8.989-5.943 14.349 0 5.92 2.475 9.875 5.943 14.349l0 0z" p-id="4314" fill="#3a3a3a"></path><path d="M208.49 665.319c20.622 0 41.246 0 61.866 0 49.336 0 98.671 0 148.008 0 59.252 0 118.503 0 177.754 0s100.738 0 151.107 0c22.69 0 45.381 0 68.07 0 0.072 0 0.142 0 0.214 0 11.046 0 20.262-9.231 20.262-20.291s-9.217-20.292-20.263-20.292c-20.622 0-41.245 0-61.866 0-49.335 0-98.67 0-148.008 0-59.251 0-118.501 0-177.753 0-50.369 0-100.738 0-151.107 0-22.69 0-45.38 0-68.069 0-0.073 0-0.142 0-0.214 0-11.046 0-20.263 9.231-20.263 20.292s9.218 20.291 20.263 20.291l0 0z" p-id="4315" fill="#3a3a3a"></path></svg>