<?xml version="1.0" standalone="no"?><!DOCTYPE svg PUBLIC "-//W3C//DTD SVG 1.1//EN" "http://www.w3.org/Graphics/SVG/1.1/DTD/svg11.dtd"><svg t="1565556481390" class="icon" viewBox="0 0 1024 1024" version="1.1" xmlns="http://www.w3.org/2000/svg" p-id="17314" width="18" height="18" xmlns:xlink="http://www.w3.org/1999/xlink"><defs><style type="text/css"></style></defs><path d="M704 767.637333V512H149.333333v341.333333a64 64 0 0 0 64 64h426.666667a64 64 0 0 0 64-64v-85.013333a21.333333 21.333333 0 0 1 0-0.682667zM746.666667 426.666667h106.666666a64 64 0 0 1 64 64v160c0 65.514667-49.28 120.576-113.728 127.722666l-56.938666 8.106667V853.333333a106.666667 106.666667 0 0 1-106.666667 106.666667H213.333333a106.666667 106.666667 0 0 1-106.666666-106.666667V341.333333a21.333333 21.333333 0 0 1 21.333333-21.333333h597.333333a21.333333 21.333333 0 0 1 21.333334 21.333333v85.333334z m0 42.666666v274.069334l51.562666-7.338667A85.930667 85.930667 0 0 0 874.666667 650.666667V490.666667a21.333333 21.333333 0 0 0-21.333334-21.333334h-106.666666z m-42.666667 0v-106.666666H149.333333v106.666666h554.666667zM293.461333 242.048a21.333333 21.333333 0 1 1-32.256 27.904c-35.776-41.365333-35.776-83.413333 2.368-115.584 18.752-15.808 18.752-30.656-2.368-55.082667a21.333333 21.333333 0 0 1 32.256-27.904c35.776 41.365333 35.776 83.413333-2.368 115.584-18.752 15.808-18.752 30.656 2.368 55.082667z m149.333334 0a21.333333 21.333333 0 1 1-32.256 27.904c-35.776-41.365333-35.776-83.413333 2.368-115.584 18.752-15.808 18.752-30.656-2.368-55.082667a21.333333 21.333333 0 0 1 32.256-27.904c35.776 41.365333 35.776 83.413333-2.368 115.584-18.752 15.808-18.752 30.656 2.368 55.082667z m149.333333 0a21.333333 21.333333 0 1 1-32.256 27.904c-35.776-41.365333-35.776-83.413333 2.368-115.584 18.752-15.808 18.752-30.656-2.368-55.082667a21.333333 21.333333 0 0 1 32.256-27.904c35.776 41.365333 35.776 83.413333-2.368 115.584-18.752 15.808-18.752 30.656 2.368 55.082667z" fill="#F17338" p-id="17315"></path></svg>